<?xml version="1.0" encoding="UTF-8"?>
<svg version="1.1" viewBox="0 0 2048 1927" width="1280" height="1280" xmlns="http://www.w3.org/2000/svg">
<path transform="translate(0)" d="m0 0h2048v1927h-2048z" fill="#FDFDFD"/>
<path transform="translate(1e3 363)" d="m0 0h43l39 3 37 5 37 7 53 12 6 2-2 5-8 16-13 31-9 21-4 10v7l45 17 125 49 83 33 65 26 16 8 7 6 15 20 15 24 12 21 15 29 12 28 13 35 8 25 11 44 7 37 4 51v69l-2 31-3 19-4 14-6 11-7 7-14 10-14 8-17 7-25 6-7 1h-22l-22-3-17-4-30-10-28-11-29-12-43-18-35-15-27-11-27-10-3-3-8-16-7-11-10-9-16-10-15-6-12-3h-10l-17 5-10 4-11 7-12 10-8 11-6 13-4 15v21l5 18 8 15 11 12 14 9 15 6 8 2h22l12-2 10-4 7 1 21 8 27 11 39 15 39 17 43 18 32 13 30 14 14 8 12 9 8 7 9 11 9 13 7 11 8 19 6 18 2 8v8l-6 11-10 13-11 13-13 17-10 11-7 8-9 9-7 8-9 9-8 7-12 11-11 9-17 14-12 9-17 12-15 10-24 14-24 13-38 17-23 9-27 9-30 8-33 8-37 7-30 4h-12l-18-6-75-31-37-15-41-16-46-18-30-11-40-15-1 5-7 18-9 26-3 6-5-1-19-9-22-13-11-7-17-11-23-16-16-12-11-9-13-11-10-9-8-7-35-35-7-8-9-10-9-11-10-13-14-20-14-21-12-20-11-19-10-19-12-26-10-24-10-27-10-35-8-36-7-46-5-38-2-23v-22l3-11 4-7 5-4 9-4 12-2h11l16 3 27 9 48 19 90 36 33 13 42 16 30 10 28 7 23 4 9 1h19l28-4 27-6 20-6 21-8 23-12 20-14 13-11 9-8 7-8 10-11 11-15 9-15 8-16 10-21 16-41 19-47 19-48 13-33 12-36 6-25 2-17v-40l-3-21-8-29-9-22-12-23-13-19-11-14-12-13-9-9-11-9-12-9-18-11-14-8-25-11-29-12-33-13-16-6-1-2 42-8 34-5z" fill="#0FA0DD"/>
<path transform="translate(759,425)" d="m0 0 6 1 15 7 50 19 33 13 52 21 32 13 17 9 16 12 12 11 9 10 12 19 9 19 7 19 3 12 1 7v26l-4 18-10 28-19 47-17 41-13 32-11 28-15 37-12 23-10 14-9 10-7 7-15 11-14 8-14 6-21 6-19 4h-23l-22-4-23-7-30-11-28-11-34-14-28-11-68-28-30-11-37-13-26-7-29-5-14-1h-4l2-5 4-9 17-54 12-32 12-28 8-16 13-25 10-17 15-25 8-11 11-16 10-13 11-13 9-10 7-8 15-16 17-16 8-7 15-13 17-13 18-13 32-22 18-11 19-10 20-9z" fill="#0FA0DD"/>
<path transform="translate(1397,1444)" d="m0 0 5 1-2 5-12 10-19 14-18 12-20 12-27 15-28 13-24 10-24 9-30 9-20 5-17 3-13 3h-6l2-1v-2l16-6 9-5 4-3 5-1 5-2h3l7-4v2l8-3 6-1 5-3 1-1 9-2 11-4 12-6 8-1h4l1-4 5-1 2-3 10-2 13-6 10-3 3-1v-2h2l2-4 7-1 6-3 8-5 10-6 6-3 4-3h2l1-3 15-8 4-4 7-6 6-1 2-5 5-1h3z" fill="#0897D9"/>
<path transform="translate(474,1228)" d="m0 0 4 2 3 4 6 2 4 2 7 12 5 12v8l4 11 6 10 8 9 6 4 5 5 5 8 1 5 2 6 7 11 4 4 4 7 8 9v2l3 1 5 5 5 4v2h2v2l3 1v2h2l9 11v2h2l5 5v2l4 2 8 9 5 5v2h2v3l5 2v2h2l6 7v2l4 2 8 7 7 5 2 3 8 3 5 5 16 11 7 5-1 3-7-3-18-13-12-9-11-9-13-11-10-9-8-7-35-35-7-8-9-10-9-11-10-13-14-20-14-21-12-20-11-19-10-19z" fill="#0997D9"/>
<path transform="translate(1264,1016)" d="m0 0 6 1 11 6 3 3 18 7 13 3 20 8 11 5 1 2 6 2 13 6v2h2v2h2l3 3 8 6v2l-13-3-42-18v-2l-9-3-23-10-29-12-2-8z" fill="#0896D9"/>
<path transform="translate(1101,742)" d="m0 0 2 1v7l-4 13-2 5-2 10-3 9-5 12-2 5h-2l-1 4-6 12-3 10-6 11-2 6-2 1-3 10-2 5h-2l-2 6-3 7h-2l-1 2 2-12 23-57 19-48 7-17h2z" fill="#0997D9"/>
<path transform="translate(418,1007)" d="m0 0 4 4 3 8 6 26 3 16 1 15 3 20 1 11 1 2 1 11v10l-1 3h-2l-8-34-5-30-7-48z" fill="#0896D9"/>
<path transform="translate(933,1519)" d="m0 0 9 1 11 3 16 5 8 3 8 2 8 3h5l1 2 5 1 7 5 3 1 2 2 11 6 7 6h2v2l5 2v2l-6-1-102-42z" fill="#0997D9"/>
<path transform="translate(1354,552)" d="m0 0 10 2 88 35 47 19 14 7 7 6 6 8v3l-4-2-7-4-6-7h-2v-2l-4-1-1-2-13-6-10-3-9-3-24-10-10-2-20-8-8-4-7-5-10-3-20-10-16-6z" fill="#0998DA"/>
<path transform="translate(528,620)" d="m0 0 1 3-1 6h-2l-1 5-5 8h-2l-4 8v2h-2l-1 5-1 3h-2l-1 5h-2l-2 7-7 11-7 15-3 5-2 4h-2l-1 5-6 12-3 3-9 21-3 6-1-3 2-8 12-29 8-16 14-27 10-17 15-25 6-8z" fill="#0998D9"/>
<path transform="translate(746,432)" d="m0 0h3v2l-5 3-10 4-10 6-4 1v2h-2l-2 4-5 5-7 4-12 9h-2v2l-3 1-4 4-8 4-3 1v2l-11 7-10 6-12 6-7 5-2-1 6-7 16-12 17-12 23-16 14-9 17-10z" fill="#0997D9"/>
<path transform="translate(1175,958)" d="m0 0h4v2l20 4v2h5v2l6 1 5 3v2l9 3 6 4 5 6 3 5 3 2-1 4-15-13-16-10-15-6-12-3h-10l-17 5-14 5h-2l2-5 5-4 17-7z" fill="#0998DA"/>
<path transform="translate(516,855)" d="m0 0 17 2 12 4 12 5 10 4 5 3 18 6 6 4 3 3 9 3 4 2v2l-11-2-34-14-30-11-19-7v-2h-2z" fill="#0998DA"/>
<path transform="translate(1613,1076)" d="m0 0h4l-1 4-11 10-18 11-26 10-9 2-4-1 8-5 7-3h3v-2l21-10 7-3 6-4h8l1-5z" fill="#0896D9"/>
<path transform="translate(449,935)" d="m0 0 13 1 16 4 21 7 5 2 8 2 39 15 2 1v2l4 1v2l-10-1-6-3-1-2-5-1v-2h-5v-2l-8-1-7-4-10-4-13-4-10-4-10-1-14-4h-19l-10 4-5 1 5-4 10-4z" fill="#0896D9"/>
<path transform="translate(896,927)" d="m0 0h2v5l-11 8-15 8-14 5h-5l-1-4 4-5 21-7 5-4 9-3z" fill="#0896D9"/>
<path transform="translate(1073,484)" d="m0 0 4 1 4 2 4 1 7 10 2 5 1 5 8 16 2 2v3l2 1 2 8-2 1-6-12-3-3-9-15-12-17z" fill="#0997D9"/>
<path transform="translate(1492,1351)" d="m0 0h3l-1 5-10 12-9 11-12 13-4 4-8 4v-4h2l1-3h2l2-4 8-8 6-9 6-5 5-5 3-1 1-4z" fill="#0998DA"/>
<path transform="translate(1113,372)" d="m0 0 17 1 36 7 34 8v2l4 1h-11l-13-3-10-4-25-5-28-5z" fill="#0B9ADA"/>
<path transform="translate(1439,1408)" d="m0 0 2 2-2 4-11 11-8 7-6 5-5 1 2-5 9-10 7-7z" fill="#0896D9"/>
<path transform="translate(510,952)" d="m0 0 8 1 35 14v2l4 1v2l-10-1-6-3-1-2-5-1v-2h-5v-2l-8-1-7-4-5-2z" fill="#0C9CDB"/>
<path transform="translate(900,1035)" d="m0 0h6l-2 2-31 11-15 3h-12l4-1v-2l27-6 20-6z" fill="#0A99DA"/>
<path transform="translate(1479,1108)" d="m0 0 25 1 6 2 5 1v2l2 1-1 1h-11l-24-4-4-2h2z" fill="#0896D9"/>
<path transform="translate(650,1450)" d="m0 0 7 1 3 1 5 5 16 11 7 5-1 3-7-3-18-13-12-9z" fill="#0A98DA"/>
<path transform="translate(446,934)" d="m0 0h11l16 3 27 9 7 3-3 1-22-8-14-4-13-2-16 1-10 4-8 6h-2l2-4 8-5 9-3z" fill="#10A1DE"/>
<path transform="translate(565,572)" d="m0 0 1 4-2 6h-2l-2 4-8 6h-2l-2 4h-3l3-6 7-8 7-6 1-2h2z" fill="#0997D9"/>
<path transform="translate(989,365)" d="m0 0h12l-1 2-13 2h-12l-3 1-12 1-5-1 3-2z" fill="#0896D9"/>
<path transform="translate(1165,382)" d="m0 0h9l26 6v2l4 1h-11l-13-3-10-4-5-1z" fill="#0A99DA"/>
<path transform="translate(761,1507)" d="m0 0h6l-4 9-6 1-7-4 1-3z" fill="#0896D9"/>
<path transform="translate(530,960)" d="m0 0 10 3 17 7v2l-10-1-6-3-1-2-5-1v-2h-5z" fill="#0896D9"/>
<path transform="translate(1211,1109)" d="m0 0 8 1 8 3v2l9 3-4 1-13-4-7-3z" fill="#0998D9"/>
<path transform="translate(746,432)" d="m0 0h3v2l-5 3-10 4-6 4-3-1v-2z" fill="#0A99DA"/>
<path transform="translate(1613,1076)" d="m0 0h4l-1 4-6 6h-2l1-6z" fill="#0998DA"/>
<path transform="translate(467,733)" d="m0 0 1 3-8 18-1-3 2-8 2-5h2z" fill="#0A99DA"/>
<path transform="translate(1354,552)" d="m0 0 10 2 10 4v1h-7l-12-5z" fill="#0B9ADB"/>
<path transform="translate(766,1508)" d="m0 0 1 3-4 9-5-1-6-3 1-2 4 2 2-1h4z" fill="#10A1DE"/>
<path transform="translate(1328,542)" d="m0 0 13 3 5 2v2l-5-1-10-3z" fill="#0A99DA"/>
<path transform="translate(1073,367)" d="m0 0 17 1 2 3-18-1z" fill="#0896D9"/>
<path transform="translate(579,557)" d="m0 0v3l-3 4-4 5-4 1 1-4 8-7z" fill="#0896D9"/>
<path transform="translate(1017,434)" d="m0 0 7 2 5 5-4 1-8-7z" fill="#0998D9"/>
<path transform="translate(874,472)" d="m0 0 9 1 2 1v2l-3 1-8-3z" fill="#0998DA"/>
<path transform="translate(1155,379)" d="m0 0 11 1 4 2h-10l-5-1z" fill="#0C9CDB"/>
<path transform="translate(602,888)" d="m0 0h5l5 3v2l-5-1-5-2z" fill="#0896D9"/>
</svg>
